<?xml version="1.0" standalone="no"?>
<!DOCTYPE svg PUBLIC "-//W3C//DTD SVG 20010904//EN"
 "http://www.w3.org/TR/2001/REC-SVG-20010904/DTD/svg10.dtd">
<svg version="1.0" xmlns="http://www.w3.org/2000/svg"
 width="920.000000pt" height="808.000000pt" viewBox="0 0 920.000000 808.000000"
 preserveAspectRatio="xMidYMid meet">

<g transform="translate(0.000000,808.000000) scale(0.100000,-0.100000)"
fill="#000000" stroke="none">
<path d="M979 8050 c-127 -16 -267 -71 -385 -151 -261 -175 -451 -504 -534
-919 -40 -203 -53 -326 -54 -540 l-1 -186 35 -58 c76 -127 84 -128 809 -141
156 -2 285 -6 286 -7 2 -2 5 -1177 8 -2613 4 -1801 9 -2634 17 -2688 28 -205
145 -406 316 -543 78 -63 220 -136 309 -160 116 -31 477 -35 2730 -31 2049 3
2225 5 2284 20 313 84 556 314 642 609 30 105 36 298 38 1353 l1 900 -285
-285 -284 -285 -7 -685 c-7 -828 -10 -882 -50 -947 -39 -63 -76 -80 -210 -96
-155 -17 -4510 -18 -4664 0 -146 17 -164 25 -210 93 l-39 57 -5 624 c-3 343
-8 1432 -11 2419 -6 2019 -13 2865 -25 3085 -7 119 -14 165 -34 222 -71 207
-173 319 -330 364 l-61 18 125 1 c69 1 136 3 150 5 56 7 4012 11 4335 5 325
-7 355 -9 420 -30 178 -57 314 -149 421 -283 129 -163 171 -283 179 -507 3
-74 8 -178 10 -230 3 -52 5 -356 5 -675 l0 -580 287 287 286 286 -2 259 c-3
358 -19 796 -31 870 -18 108 -59 235 -114 349 -187 390 -509 659 -940 784
l-139 40 -2611 -1 c-1436 -1 -2636 -5 -2667 -9z"/>
<path d="M8219 6017 c-77 -32 -156 -95 -320 -255 l-140 -137 509 -508 508
-508 155 159 c231 237 276 316 267 471 -8 133 -52 200 -284 436 -328 331 -365
357 -534 362 -93 3 -112 1 -161 -20z"/>
<path d="M3379 5751 c-65 -20 -123 -66 -319 -256 -74 -71 -147 -141 -162 -153
l-26 -24 -69 53 c-103 79 -161 103 -238 97 -152 -13 -258 -130 -257 -285 0
-55 5 -73 34 -119 75 -124 313 -359 413 -409 108 -54 188 -42 294 43 92 75
417 389 522 506 121 134 149 185 149 275 0 84 -30 150 -93 208 -66 61 -170 87
-248 64z"/>
<path d="M4265 5461 c-61 -8 -99 -28 -147 -76 -42 -42 -73 -102 -82 -160 -8
-51 15 -142 50 -195 31 -47 102 -96 153 -107 20 -5 443 -8 941 -8 702 0 914 3
947 13 97 29 179 131 190 235 9 86 -17 159 -81 222 -31 31 -69 59 -92 66 -30
10 -238 13 -934 15 -492 1 -917 -1 -945 -5z"/>
<path d="M6377 4231 l-1167 -1170 -95 -195 c-52 -108 -115 -240 -139 -293 -24
-54 -92 -204 -151 -333 -58 -129 -133 -300 -167 -379 -58 -139 -59 -145 -48
-189 14 -58 33 -93 72 -137 66 -76 142 -92 262 -55 124 39 604 252 1022 455
l210 102 145 138 c469 452 2239 2215 2239 2231 0 14 -986 988 -1004 992 -7 1
-537 -524 -1179 -1167z m-571 -1788 c68 -73 124 -135 124 -137 0 -8 -78 -47
-240 -121 -74 -34 -177 -81 -228 -105 l-93 -43 -88 87 -88 88 118 261 c64 144
125 272 134 285 l17 23 110 -103 c60 -56 166 -162 234 -235z"/>
<path d="M3367 4310 c-43 -13 -156 -109 -328 -277 -86 -84 -160 -153 -165
-153 -5 0 -34 20 -64 45 -30 25 -83 60 -117 77 -56 27 -70 30 -126 26 -34 -3
-81 -15 -104 -26 -136 -70 -196 -245 -127 -372 60 -111 305 -354 417 -416 61
-33 147 -42 198 -21 60 26 135 89 333 279 229 221 377 383 411 451 32 66 34
161 4 227 -56 126 -206 198 -332 160z"/>
<path d="M4480 4029 c-146 -4 -256 -11 -273 -17 -44 -18 -123 -99 -148 -150
-61 -128 0 -295 133 -363 55 -28 225 -38 673 -39 l320 0 283 283 c155 155 282
286 282 290 0 9 -858 6 -1270 -4z"/>
<path d="M3382 2871 c-18 -5 -49 -20 -70 -33 -48 -32 -221 -190 -337 -307 -49
-50 -95 -91 -101 -91 -7 0 -36 20 -66 45 -67 58 -146 97 -208 103 -170 16
-328 -164 -290 -332 16 -74 70 -145 231 -306 178 -178 215 -200 330 -200 65 0
85 4 127 28 108 58 692 651 712 721 13 49 13 145 -2 193 -16 55 -87 131 -145
156 -57 24 -135 34 -181 23z"/>
</g>
</svg>
